<svg width="2391" height="1000" viewBox="0 0 2391 1000" fill="none" xmlns="http://www.w3.org/2000/svg">
<rect width="1000" height="1000" rx="100" fill="#116DF6"/>
<path d="M443.303 262.289C507.582 262.289 608.358 262.775 672.637 262.775C679.718 262.775 686.8 263.261 693.882 264.719C700.418 265.691 706.955 267.635 713.492 270.064C719.484 272.494 725.476 275.41 731.468 278.811C736.916 282.213 742.363 286.1 747.266 290.473C752.168 294.847 756.526 299.706 760.339 304.565C764.153 309.425 767.421 314.77 770.145 320.601C772.868 325.946 774.503 331.778 776.137 338.095C777.226 344.412 778.316 350.243 778.316 357.046V547.045C778.316 553.362 777.771 559.679 776.137 565.996C775.047 572.313 772.868 577.658 770.145 583.49C767.421 588.835 764.153 594.18 760.339 599.525C756.526 604.385 752.168 609.244 747.266 613.617C741.818 617.991 736.371 622.364 730.924 625.28C725.476 628.681 719.484 631.597 713.492 634.026C707.5 636.456 700.963 637.914 694.426 639.372C687.889 640.344 680.808 641.315 673.182 641.315H592.016C589.292 641.315 587.113 641.801 584.934 642.773C582.755 643.745 581.121 645.203 579.487 646.661C572.95 653.95 566.413 661.239 559.332 668.528C552.25 675.331 545.168 682.134 536.997 688.451C529.371 694.768 521.2 700.599 513.029 706.43C504.858 712.261 496.142 717.607 487.426 722.952C479.255 727.811 469.995 732.67 460.734 737.044C451.474 741.417 442.213 745.305 432.953 749.192C431.863 749.678 430.774 749.678 429.684 749.192C428.05 748.22 427.505 746.276 428.05 744.819C429.684 741.903 431.318 739.473 432.953 736.558C434.587 734.128 436.221 731.213 437.311 728.297C440.034 722.952 442.758 717.607 444.937 711.775C447.661 705.944 449.839 700.113 452.018 694.282C454.197 688.937 456.376 683.105 458.011 677.274C460.189 671.443 461.824 665.612 463.458 659.781C464.003 657.837 464.547 656.379 464.547 654.436C464.547 650.548 462.913 647.147 459.645 644.231C456.921 641.801 452.563 639.858 448.205 639.858H355.6C348.518 639.858 341.437 639.372 334.355 637.914C327.818 636.942 321.282 634.998 315.289 633.055C309.297 631.111 303.305 628.195 297.858 624.794C291.866 621.392 286.418 617.019 280.971 612.645C276.068 608.272 271.711 603.413 267.897 598.554C264.084 593.694 260.816 588.349 258.092 582.518C255.368 577.173 253.734 571.341 252.1 565.024C251.011 558.707 249.921 552.876 249.921 546.073V426.048C249.921 406.611 221.595 406.611 217.237 420.217V546.073C217.237 554.334 218.326 562.595 219.961 570.37C221.595 578.144 224.318 585.919 227.587 593.208C230.855 600.497 235.213 607.3 240.116 614.103C245.018 620.906 251.011 627.223 257.547 633.055C264.084 638.886 271.166 644.231 278.792 648.604C285.874 652.978 294.045 656.865 302.216 659.781C310.387 662.696 319.103 665.126 327.818 666.584C336.534 668.042 345.795 669.013 355.055 669.013H422.058C422.603 669.013 423.147 669.013 423.147 669.013C425.326 669.499 426.416 671.443 425.326 673.387C424.237 677.274 422.603 680.676 421.513 684.563C419.334 689.908 417.155 695.254 414.976 700.599C412.797 705.458 410.074 710.804 407.895 715.663C407.895 716.149 407.895 716.149 407.895 716.635C405.716 721.494 402.992 726.353 399.724 731.213C396.455 736.072 393.187 740.445 388.829 745.305C385.016 749.678 380.113 754.537 375.211 759.397C370.308 764.256 364.861 768.629 358.868 773.489C355.6 776.404 353.966 779.806 353.421 783.693C353.421 787.581 354.511 790.982 357.779 793.898C359.958 795.841 362.682 797.299 365.405 798.271C368.129 799.243 371.397 799.243 374.121 798.271C386.105 795.355 398.089 791.954 410.074 788.552C421.513 785.151 432.953 781.263 443.847 776.89C454.742 772.517 465.637 768.143 475.987 763.284C486.337 758.425 496.142 753.08 505.947 747.248C515.753 741.903 525.013 735.586 533.729 729.269C542.989 722.952 551.161 716.149 559.876 709.346C566.958 703.515 573.495 697.197 580.032 690.88C586.568 684.563 593.105 677.76 599.097 670.957C599.642 669.985 600.732 669.499 602.366 669.499H673.182C682.442 669.499 691.703 668.528 700.418 667.07C709.134 665.612 717.85 663.182 726.021 660.267C734.192 657.351 741.818 653.464 749.445 649.09C757.071 644.717 764.153 639.372 770.689 633.541C777.226 627.709 783.218 621.392 788.121 614.589C793.024 607.786 797.382 600.983 800.65 593.694C803.918 586.405 806.642 578.63 808.276 570.855C809.911 563.081 811 554.82 811 546.559V356.074C811 347.813 809.911 339.552 808.276 331.778C806.642 324.003 803.918 316.228 800.65 308.939C797.382 301.65 793.024 294.847 788.121 288.044C783.218 281.241 777.226 274.924 770.689 269.092C764.153 263.261 757.071 257.916 749.445 253.543C742.363 249.169 734.192 245.282 726.021 242.366C717.85 239.451 709.134 237.021 700.418 235.563C691.703 234.105 682.442 233.134 673.182 233.134C606.179 233.134 503.224 232.648 436.221 232.648C419.879 237.021 418.789 262.289 443.303 262.289ZM322.371 391.547C332.721 394.463 343.071 397.378 353.421 400.294C363.771 403.209 374.121 406.611 384.471 409.526C408.984 416.329 422.603 420.703 425.326 421.189C428.05 421.675 426.416 411.956 420.424 390.575L400.813 324.003L399.179 322.545L322.371 391.547ZM370.853 296.791L271.166 203.492C267.897 201.062 264.629 200.09 260.816 202.034L192.179 261.318C189.455 264.233 188.911 267.635 192.724 271.036L294.045 365.793L370.853 296.791ZM419.334 555.306C410.618 555.306 404.082 549.474 403.537 541.7C403.537 533.925 410.074 528.094 418.789 527.608L554.974 525.664L586.024 523.72C594.739 523.234 601.821 529.065 602.366 536.354C602.911 544.129 596.374 550.446 588.203 550.932L557.153 552.876C557.153 552.876 432.953 554.82 419.334 555.306ZM467.816 468.81C459.1 468.81 452.563 462.493 452.563 455.204C452.563 447.429 459.645 441.598 467.816 441.598H661.742C670.458 441.598 676.995 447.915 676.995 455.204C676.995 462.979 669.913 468.81 661.742 468.81H467.816ZM536.453 386.688C527.737 386.688 521.2 380.371 521.2 373.082C521.2 365.793 528.282 359.476 536.453 359.476H661.742C670.458 359.476 676.995 365.793 676.995 373.082C676.995 380.857 669.913 386.688 661.742 386.688H536.453Z" fill="white"/>
<path d="M1241.59 424.672V464.516H1118.54V424.672H1241.59ZM1149.01 372.523H1205.26V572.328C1205.26 578.448 1206.04 583.135 1207.6 586.391C1209.29 589.646 1211.77 591.924 1215.02 593.227C1218.28 594.398 1222.38 594.984 1227.33 594.984C1230.84 594.984 1233.97 594.854 1236.7 594.594C1239.57 594.203 1241.98 593.812 1243.93 593.422L1244.12 634.828C1239.31 636.391 1234.1 637.628 1228.5 638.539C1222.9 639.451 1216.72 639.906 1209.95 639.906C1197.58 639.906 1186.77 637.888 1177.52 633.852C1168.41 629.685 1161.38 623.044 1156.43 613.93C1151.48 604.815 1149.01 592.836 1149.01 577.992V372.523ZM1387.68 588.344V494.203C1387.68 487.432 1386.57 481.638 1384.36 476.82C1382.15 471.872 1378.7 468.031 1374.01 465.297C1369.45 462.562 1363.53 461.195 1356.23 461.195C1349.98 461.195 1344.58 462.302 1340.02 464.516C1335.47 466.599 1331.95 469.659 1329.48 473.695C1327 477.602 1325.77 482.224 1325.77 487.562H1269.52C1269.52 478.578 1271.6 470.049 1275.77 461.977C1279.93 453.904 1285.99 446.807 1293.93 440.688C1301.87 434.438 1311.31 429.555 1322.25 426.039C1333.32 422.523 1345.69 420.766 1359.36 420.766C1375.77 420.766 1390.35 423.5 1403.11 428.969C1415.87 434.438 1425.9 442.641 1433.19 453.578C1440.61 464.516 1444.32 478.188 1444.32 494.594V585.023C1444.32 596.612 1445.04 606.117 1446.47 613.539C1447.9 620.831 1449.98 627.211 1452.72 632.68V636H1395.88C1393.15 630.271 1391.07 623.109 1389.63 614.516C1388.33 605.792 1387.68 597.068 1387.68 588.344ZM1395.1 507.289L1395.49 539.125H1364.05C1356.62 539.125 1350.18 539.971 1344.71 541.664C1339.24 543.357 1334.75 545.766 1331.23 548.891C1327.72 551.885 1325.11 555.401 1323.42 559.438C1321.86 563.474 1321.08 567.901 1321.08 572.719C1321.08 577.536 1322.18 581.898 1324.4 585.805C1326.61 589.581 1329.8 592.576 1333.97 594.789C1338.14 596.872 1343.02 597.914 1348.62 597.914C1357.08 597.914 1364.44 596.221 1370.69 592.836C1376.94 589.451 1381.76 585.284 1385.14 580.336C1388.66 575.388 1390.48 570.701 1390.61 566.273L1405.45 590.102C1403.37 595.44 1400.51 600.974 1396.86 606.703C1393.34 612.432 1388.85 617.836 1383.38 622.914C1377.91 627.862 1371.34 631.964 1363.66 635.219C1355.97 638.344 1346.86 639.906 1336.31 639.906C1322.9 639.906 1310.73 637.237 1299.79 631.898C1288.98 626.43 1280.39 618.943 1274.01 609.438C1267.76 599.802 1264.63 588.865 1264.63 576.625C1264.63 565.557 1266.72 555.727 1270.88 547.133C1275.05 538.539 1281.17 531.312 1289.24 525.453C1297.45 519.464 1307.67 514.971 1319.91 511.977C1332.15 508.852 1346.34 507.289 1362.48 507.289H1395.1ZM1547.05 336V636H1490.61V336H1547.05ZM1649.79 335.805V636H1593.54V335.805H1649.79ZM1782.99 424.672L1691.2 529.359L1641.98 579.164L1621.47 538.539L1660.53 488.93L1715.41 424.672H1782.99ZM1724.59 636L1662.09 538.344L1700.96 504.359L1789.44 636H1724.59ZM1852.13 336V636H1815.8V336H1852.13ZM1949.4 424.672V636H1913.07V424.672H1949.4ZM1910.34 368.617C1910.34 362.758 1912.09 357.81 1915.61 353.773C1919.26 349.737 1924.59 347.719 1931.62 347.719C1938.53 347.719 1943.8 349.737 1947.45 353.773C1951.22 357.81 1953.11 362.758 1953.11 368.617C1953.11 374.216 1951.22 379.034 1947.45 383.07C1943.8 386.977 1938.53 388.93 1931.62 388.93C1924.59 388.93 1919.26 386.977 1915.61 383.07C1912.09 379.034 1910.34 374.216 1910.34 368.617ZM2043.73 336V636H2007.41V336H2043.73ZM2172.84 424.672L2080.65 523.305L2029.09 576.82L2026.16 538.344L2063.07 494.203L2128.7 424.672H2172.84ZM2139.83 636L2064.44 535.219L2083.19 502.992L2182.41 636H2139.83ZM2293.93 639.906C2279.22 639.906 2265.87 637.432 2253.89 632.484C2242.04 627.406 2231.82 620.31 2223.23 611.195C2214.76 602.081 2208.25 591.273 2203.7 578.773C2199.14 566.273 2196.86 552.602 2196.86 537.758V529.555C2196.86 512.367 2199.4 497.068 2204.48 483.656C2209.55 470.115 2216.46 458.656 2225.18 449.281C2233.9 439.906 2243.8 432.81 2254.87 427.992C2265.93 423.174 2277.39 420.766 2289.24 420.766C2304.35 420.766 2317.37 423.37 2328.3 428.578C2339.37 433.786 2348.42 441.078 2355.45 450.453C2362.48 459.698 2367.69 470.635 2371.08 483.266C2374.46 495.766 2376.16 509.438 2376.16 524.281V540.492H2218.34V511H2340.02V508.266C2339.5 498.891 2337.55 489.776 2334.16 480.922C2330.91 472.068 2325.7 464.776 2318.54 459.047C2311.38 453.318 2301.61 450.453 2289.24 450.453C2281.04 450.453 2273.49 452.211 2266.59 455.727C2259.68 459.112 2253.76 464.19 2248.81 470.961C2243.86 477.732 2240.02 486 2237.29 495.766C2234.55 505.531 2233.19 516.794 2233.19 529.555V537.758C2233.19 547.784 2234.55 557.224 2237.29 566.078C2240.15 574.802 2244.26 582.484 2249.59 589.125C2255.06 595.766 2261.64 600.974 2269.32 604.75C2277.13 608.526 2285.99 610.414 2295.88 610.414C2308.64 610.414 2319.45 607.81 2328.3 602.602C2337.16 597.393 2344.91 590.427 2351.55 581.703L2373.42 599.086C2368.86 605.987 2363.07 612.562 2356.04 618.812C2349.01 625.062 2340.35 630.141 2330.06 634.047C2319.91 637.953 2307.86 639.906 2293.93 639.906Z" fill="#116DF6"/>
</svg>
